<svg width="40" height="40" viewBox="0 0 40 40" fill="none" xmlns="http://www.w3.org/2000/svg">
<g filter="url(#filter0_b_282_20267)">
<circle cx="20" cy="20" r="20" fill="white" fill-opacity="0.05"/>
<circle cx="20" cy="20" r="19.5" stroke="white" stroke-opacity="0.15"/>
</g>
<path fill-rule="evenodd" clip-rule="evenodd" d="M10.6877 11.6096C10.9033 11.4371 11.2179 11.472 11.3905 11.6877L13.0091 13.711L14.3559 12.1047C14.9566 11.3883 16.0592 11.39 16.6577 12.1082L18 13.719L19.3477 12.1018C19.9474 11.3822 21.0527 11.3822 21.6524 12.1018L23.1524 13.9018C23.377 14.1714 23.5 14.5112 23.5 14.8621V15.803C23.8346 15.4823 24.1246 15.2251 24.3969 15.0307C24.9125 14.6624 25.3878 14.5 26 14.5C26.3955 14.5 26.8442 14.6866 27.2432 14.995C27.6539 15.3124 28.049 15.7853 28.3319 16.4219C28.9016 17.7036 28.999 19.599 27.9643 22.1857C27.2092 24.0734 26.0068 25.3327 24.746 26.1494C25.2738 26.5639 26.0155 26.8875 27.0552 27.0031C27.3297 27.0336 27.5275 27.2808 27.497 27.5552C27.4665 27.8297 27.2193 28.0275 26.9448 27.997C25.5319 27.84 24.5203 27.3366 23.8206 26.6697C22.5445 27.2866 21.305 27.5 20.5 27.5C20.2239 27.5 20 27.2762 20 27C20 26.7239 20.2239 26.5 20.5 26.5C21.1422 26.5 22.1281 26.3364 23.1677 25.8716C23.1665 25.8697 23.1653 25.8679 23.1642 25.8661C22.5298 24.8566 22.4123 23.7285 22.5 22.9701V14.8621C22.5 14.7451 22.459 14.6318 22.3841 14.542L20.8841 12.742C20.6842 12.5021 20.3158 12.5021 20.1159 12.742L18.5 14.681V25C18.5 25.2762 18.2762 25.5 18 25.5C17.7239 25.5 17.5 25.2762 17.5 25V14.681L15.8895 12.7484C15.6899 12.509 15.3224 12.5084 15.1222 12.7472L13.5 14.6819V25C13.5 25.2762 13.2762 25.5 13 25.5C12.7239 25.5 12.5 25.2762 12.5 25V14.6754L10.6096 12.3124C10.4371 12.0967 10.472 11.7821 10.6877 11.6096ZM23.5 23.0064C23.5001 23.0017 23.5001 22.9971 23.5 22.9924L23.5 17.2072C24.178 16.5299 24.6086 16.1083 24.9781 15.8444C25.3376 15.5876 25.6122 15.5 26 15.5C26.1046 15.5 26.3433 15.5634 26.6318 15.7863C26.9086 16.0002 27.2011 16.3397 27.4181 16.8281C27.8485 17.7964 28.0011 19.4011 27.0358 21.8143C26.3404 23.5529 25.2151 24.6865 24.0551 25.4024C24.04 25.3796 24.0252 25.3568 24.0109 25.334C23.6258 24.7213 23.4856 24.0423 23.4749 23.5H23.5V23.0064Z" fill="#CDC3AB"/>
<defs>
<filter id="filter0_b_282_20267" x="-4" y="-4" width="48" height="48" filterUnits="userSpaceOnUse" color-interpolation-filters="sRGB">
<feFlood flood-opacity="0" result="BackgroundImageFix"/>
<feGaussianBlur in="BackgroundImageFix" stdDeviation="2"/>
<feComposite in2="SourceAlpha" operator="in" result="effect1_backgroundBlur_282_20267"/>
<feBlend mode="normal" in="SourceGraphic" in2="effect1_backgroundBlur_282_20267" result="shape"/>
</filter>
</defs>
</svg>
