<svg width="31" height="30" viewBox="0 0 31 30" fill="none" xmlns="http://www.w3.org/2000/svg">
<path d="M3.61737 14.3545C3.91574 14.3545 6.99731 14.1078 7.46133 13.9761C7.92536 13.8445 7.74324 12.7906 7.72629 11.7212C7.70933 10.6518 8.14139 8.26382 8.05856 8.11624C7.97574 7.96865 5.77379 7.71703 5.57374 7.81961C4.38025 8.42931 2.87241 12.3309 2.82252 13.186C2.77263 14.041 3.31997 14.3555 3.61834 14.3555L3.61737 14.3545ZM4.99783 11.0951C5.37321 10.3707 5.96996 9.47065 6.16855 9.31725C6.37198 9.15951 7.20704 9.3608 7.20704 9.3608C7.20704 9.3608 7.13923 13.3781 6.96292 13.4221C6.78612 13.4656 4.48875 13.6408 4.37832 13.4869C4.26836 13.3331 4.62195 11.8185 4.99734 11.0941L4.99783 11.0951ZM21.3628 7.45718C21.5284 7.6217 22.1252 7.5888 22.4729 7.52299C22.8207 7.45718 23.8147 7.63816 24.2293 7.40782C24.6434 7.17749 24.362 6.7657 23.9309 6.1739C23.4998 5.58066 22.2903 4.69175 21.1806 4.14883C20.071 3.6059 19.4272 3.77478 19.3415 3.96737C19.2097 4.26351 19.7566 4.75756 20.0051 5.0866C20.2536 5.41565 21.1981 7.29314 21.3637 7.45766L21.3628 7.45718ZM23.0474 6.70522C23.0038 6.83683 21.9866 6.96845 21.8103 6.85909C21.634 6.74973 20.9709 5.23467 20.9481 5.14709C20.9481 5.14709 23.0915 6.5736 23.0474 6.70522ZM8.85293 21.7784C8.65434 21.6637 7.11404 22.4626 7.14649 22.6842C7.17943 22.9146 8.32351 23.3922 8.62092 23.5731C8.91929 23.7541 9.88028 24.1988 10.0624 24.149C10.2445 24.1006 10.1447 23.9844 9.92969 23.5896C9.71463 23.1957 9.05201 21.895 8.85293 21.7798V21.7784ZM22.5393 9.00466C21.9096 9.13628 22.193 10.0474 22.0089 10.3218C21.976 10.3712 22.1416 13.5813 22.4565 14.009C22.7713 14.4373 25.6049 14.3381 25.9362 14.2558C26.2675 14.1736 26.4002 13.9761 26.4167 13.3011C26.4332 12.6261 26.2011 9.94292 25.8534 9.25096C25.5056 8.559 23.169 8.87256 22.5393 9.00466ZM25.0798 13.3998C24.9694 13.5314 23.3119 13.6631 23.2019 13.5097C23.092 13.3563 22.8934 11.0733 22.8934 10.8976C22.8934 10.6605 24.7272 10.678 24.9035 10.8105C25.0808 10.9412 25.1912 13.2687 25.0808 13.3993L25.0798 13.3998ZM2.24176 12.2482C2.29165 11.7701 1.87703 11.6056 1.61207 11.9675C1.34712 12.3295 1.24734 14.0753 1.44642 15.5725C1.6455 17.0696 2.87192 19.4678 2.98672 19.5404C3.30156 19.7378 3.50015 19.4746 3.56699 19.2772C3.63335 19.0788 3.01966 18.3215 2.38997 16.5601C1.76029 14.7988 2.19235 12.7238 2.24176 12.2467V12.2482ZM7.79264 15.8691C7.7103 15.754 6.56719 15.8527 6.00338 15.902C5.44006 15.9514 4.52895 15.9514 4.19668 15.9185C3.86585 15.8856 3.10055 15.962 3.03709 16.1817C2.9378 16.5272 3.25264 17.7292 3.76607 18.8818C4.2795 20.0335 4.90919 20.7738 5.45653 20.8401C6.00386 20.9064 6.4335 20.1806 7.12954 19.8844C7.82558 19.5883 8.4044 19.7364 8.55359 19.506C8.70375 19.2757 7.87547 15.9833 7.79168 15.8682L7.79264 15.8691ZM7.80378 18.9757C7.69432 19.1509 5.83869 19.9193 5.70646 19.8312C5.57423 19.7431 4.86559 17.526 4.8438 17.3072C4.81958 17.0605 7.18573 16.7798 7.25209 16.8025C7.31845 16.8238 7.91519 18.8 7.80378 18.9757ZM10.7265 21.2524C10.5608 21.9284 12.7318 25.0558 12.8965 25.0896C13.0626 25.1221 14.306 25.1056 14.4547 25.0233C14.6048 24.9411 14.537 20.7603 14.273 20.4966C14.0091 20.2328 10.7817 21.0303 10.7274 21.2534L10.7265 21.2524ZM13.8139 24.4635C13.5707 24.4635 13.5489 24.5733 13.3721 24.4199C13.1953 24.2661 12.1791 22.7515 12.0909 22.5536C12.0464 22.4529 13.4172 21.4997 13.5925 21.6971C13.7703 21.8955 14.057 24.4635 13.8139 24.4635ZM8.58798 6.71586C9.08494 6.71586 9.81344 4.85627 9.96359 4.60901C10.1123 4.36222 10.1622 3.95092 9.83039 3.95092C9.4986 3.95092 6.66067 5.95519 6.58269 6.07422C6.33469 6.45311 8.09102 6.71586 8.58798 6.71586ZM8.55504 5.5642C8.6214 5.5642 8.46689 6.09164 8.35645 6.0689C8.24602 6.04713 8.13558 6.00309 8.06922 5.93728C7.84641 5.7176 8.48772 5.56469 8.55359 5.56469L8.55504 5.5642ZM9.99653 15.8527C9.81441 16.1982 10.1457 18.4705 10.3937 18.6834C10.6417 18.8963 13.9393 18.8978 14.4866 18.7497C15.034 18.6007 14.9507 16.2466 14.6358 15.8851C14.321 15.5222 10.1244 15.6093 9.99653 15.8512V15.8527ZM13.8134 17.9866C13.6148 17.9866 11.8245 18.2286 11.7141 18.0311C11.6037 17.8337 11.7364 17.1311 11.8023 16.9555C11.8614 16.8006 13.7906 16.715 13.901 16.9346C14.0105 17.1543 14.0105 17.9881 13.8119 17.9881L13.8134 17.9866ZM12.896 3.2425C12.1336 3.75349 10.8907 6.55231 10.8907 6.88135C10.8907 7.2104 11.2225 7.32556 11.5543 7.42428C11.8851 7.52299 14.1718 7.78623 14.4702 7.70396C14.7685 7.6217 14.7685 7.02894 14.7685 6.40327C14.7685 5.7776 15.0669 3.40702 14.9013 3.2096C14.7356 3.01217 13.3963 2.90716 12.896 3.2425ZM14.0778 6.35391C14.0778 6.7057 14.0778 7.1233 13.901 7.10055C13.7233 7.07878 12.3753 7.10055 12.3753 6.90313C12.3753 6.7057 13.1939 4.64239 14.2304 4.24657C14.2934 4.22335 14.0769 6.00309 14.0769 6.3544L14.0778 6.35391ZM16.8891 9.58049C16.5244 9.86018 16.5908 13.7952 16.8228 14.1073C17.0553 14.4199 19.7895 14.4034 20.2037 14.0744C20.6178 13.7453 19.9881 9.94196 19.6563 9.61291C19.3245 9.28387 17.3202 9.24999 16.8906 9.58049H16.8891ZM19.1366 13.4439C18.9603 13.531 17.9441 13.5977 17.8336 13.4221C17.7232 13.2455 17.8336 10.9847 17.8559 10.8313C17.8826 10.6446 18.5849 10.8749 18.7181 10.8972C18.8499 10.9184 19.3139 13.3553 19.1371 13.4424L19.1366 13.4439ZM22.8711 15.573C22.4061 16.3632 21.6776 19.2941 21.9096 19.5239C22.1421 19.7533 25.5216 20.6258 25.9192 20.4288C26.3179 20.2304 27.1302 16.7077 26.8638 16.2964C26.5974 15.8851 23.1002 15.1834 22.8716 15.572L22.8711 15.573ZM25.0362 19.6991C24.859 19.6991 22.4512 19.1513 22.3848 19.0638C22.3184 18.9767 23.0256 17.0663 23.1138 16.9346C23.2223 16.7711 25.4097 17.1543 25.5211 17.5056C25.631 17.8565 25.2111 19.7001 25.0348 19.7001L25.0362 19.6991ZM21.3298 20.9403C21.2136 21.0555 20.5674 22.6687 20.3359 23.1299C20.1034 23.5905 19.59 24.3807 20.2366 24.4136C20.8818 24.4465 21.6946 24.0023 22.6391 23.5088C23.5836 23.0142 24.6763 22.2739 24.5766 22.0102C24.4768 21.7464 21.6142 20.6562 21.3289 20.9398L21.3298 20.9403ZM20.7936 23.6065C20.595 23.4972 21.3894 22.1582 21.4553 22.0484C21.5633 21.8694 22.4938 22.2458 22.4938 22.421C22.4947 22.5976 20.9922 23.7168 20.7936 23.6065ZM14.4028 14.1242C14.8 13.8116 14.7676 9.94341 14.6184 9.46532C14.4697 8.98772 11.3261 8.65868 11.0389 8.7903C10.1118 9.21854 9.99605 13.7289 10.1622 13.9757C10.3269 14.2224 14.0052 14.4368 14.4028 14.1242ZM11.7349 10.4587C11.7349 10.27 13.6124 10.2831 13.8555 10.5023C14.0987 10.7225 14.0323 13.5097 13.7892 13.575C13.546 13.6403 11.6904 13.7734 11.6022 13.4879C11.5136 13.2024 11.7349 10.5904 11.7349 10.4587ZM30.9218 13.7298C30.6893 10.9968 29.5302 6.58473 26.4482 3.62139C23.3661 0.658045 19.6248 -0.0198845 16.243 0.000438875C10.7095 0.0333434 8.85293 1.71244 6.06925 3.55606C3.28558 5.39968 0.767333 8.49367 0.137651 13.0703C-0.492031 17.6469 1.09864 20.873 3.68324 23.6723C6.26785 26.4716 9.41625 29.4664 14.9507 29.9271C20.4846 30.3877 25.323 28.6424 28.173 25.3495C31.0231 22.0566 31.1553 16.4604 30.9233 13.7284L30.9218 13.7298ZM30.0267 14.025C29.7942 13.8605 27.6242 10.7491 27.4586 10.7491C27.2929 10.7491 27.1108 11.2107 27.2101 11.2601C27.3089 11.3104 29.9105 14.5041 29.9599 14.685C30.0093 14.866 29.91 15.7714 29.8775 15.6398C29.8436 15.5091 27.723 12.6769 27.5244 12.6769C27.3259 12.6769 27.2256 13.0224 27.2421 13.1705C27.2585 13.319 29.7608 16.2495 29.7773 16.4464C29.7942 16.6448 29.5956 17.1548 29.5956 17.1548C29.5956 17.1548 27.7235 14.8341 27.5574 14.9657C27.3917 15.0973 27.3418 15.3276 27.4581 15.5585C27.5743 15.7893 29.3956 17.7311 29.4295 17.8957C29.4634 18.0602 29.2968 18.8344 29.1645 18.6539C29.0318 18.4729 27.9391 16.8596 27.8228 16.8925C27.7066 16.9255 27.3917 17.0735 27.6242 17.436C27.8558 17.7974 28.9824 19.2133 28.9989 19.3618C29.0153 19.5104 28.701 20.3983 28.6516 20.349C28.6017 20.2996 27.6247 18.9331 27.4586 18.9496C27.2924 18.966 27.0275 19.1305 27.1437 19.3115C27.26 19.4925 28.4031 20.7603 28.4031 20.8919C28.4031 21.0235 28.3038 21.8466 28.1047 21.7314C27.9061 21.6163 26.9781 20.0688 26.8953 20.0688C26.8129 20.0688 26.2995 20.2836 26.4477 20.5309C26.5969 20.7777 27.74 22.1277 27.74 22.2265C27.74 22.3252 27.5753 22.9184 27.4092 22.8023C27.2435 22.6871 26.3654 21.1726 26.1663 21.1726C25.9677 21.1726 25.587 21.6177 25.8514 21.7987C26.1159 21.9797 27.012 23.2639 27.0285 23.3626C27.0449 23.4614 26.6143 24.0048 26.5635 23.9554C26.515 23.907 25.5041 22.2439 25.3215 22.211C25.1389 22.1781 24.7577 22.4084 24.8565 22.5729C24.9553 22.7375 26.2157 24.2849 26.1498 24.433C26.083 24.5811 25.9173 24.8782 25.7352 24.6962C25.5531 24.5157 24.7577 23.2315 24.5921 23.1817C24.4264 23.1333 24.128 23.4623 24.2608 23.6597C24.3935 23.8572 25.4208 25.0921 25.3545 25.2072C25.2881 25.3224 24.9897 25.5527 24.874 25.4869C24.7577 25.4211 23.8132 23.8572 23.6645 23.8901C23.5143 23.923 23.2165 23.9394 23.3656 24.2849C23.5148 24.6304 24.5586 25.7337 24.4424 25.8818C24.3262 26.0298 24.0287 26.4416 23.8297 26.31C23.6311 26.1779 22.7529 24.5646 22.6042 24.5487C22.4555 24.5327 22.0075 24.7954 22.1731 25.0422C22.3388 25.289 23.3162 26.5239 23.2668 26.6555C23.2174 26.7871 22.9355 27.1989 22.7699 27.0175C22.6042 26.8365 21.5604 25.0916 21.3448 25.108C21.1293 25.1245 20.8479 25.2396 20.9477 25.5029C21.0465 25.7661 22.3717 27.1984 22.1901 27.2971C22.008 27.3959 21.6427 27.511 21.5943 27.4288C21.5439 27.3465 20.2681 25.7661 20.0031 25.7661C19.7382 25.7661 19.4074 25.9142 19.5391 26.0294C19.6718 26.1445 20.8808 27.5275 20.7985 27.5768C20.7161 27.6262 20.0361 27.8072 19.9533 27.692C19.8709 27.5768 19.0252 26.0952 18.7932 26.0952C18.5607 26.0952 18.3127 26.2597 18.379 26.3913C18.4454 26.5229 19.2412 27.6591 19.1909 27.692C19.141 27.7249 18.5447 27.7743 18.412 27.6262C18.2793 27.4781 17.8322 26.5229 17.6331 26.5229C17.4345 26.5229 17.0373 26.6715 17.202 26.852C17.3682 27.0334 17.7155 27.7085 17.7155 27.7578C17.7155 27.8072 17.2359 28.021 17.0698 27.8894C16.9037 27.7578 16.4401 26.8684 16.2241 26.9023C16.0081 26.9347 15.6767 27.017 15.8259 27.2313C15.9751 27.4442 16.257 27.9059 16.1907 27.9881C16.1248 28.0704 11.4855 28.0539 9.53057 27.1317C7.57565 26.2103 5.71954 24.8109 4.42724 23.4614C3.13494 22.1118 2.27179 20.5953 1.64211 19.3938C1.01242 18.1923 0.682083 16.1827 0.748442 14.3226C0.814801 12.4625 1.06328 10.5696 2.22287 8.70949C3.38245 6.84941 5.71857 4.36416 7.54126 3.21105C9.36394 2.05794 11.2724 1.49808 12.9953 1.10274C14.7182 0.707402 16.4411 0.773695 16.9051 0.756759C20.0211 0.645464 23.0358 1.67857 25.0571 3.16024C27.0783 4.64191 26.5489 5.06967 26.5814 5.16838C26.6133 5.2671 28.0718 6.9791 28.2379 7.20943C28.4041 7.43976 28.669 8.26286 28.5688 8.13124C28.4685 7.99962 27.2101 6.32052 26.9122 6.45214C26.6133 6.58376 26.4472 6.61666 26.7136 6.81409C26.9781 7.01152 29.3641 9.81034 29.5297 10.271C29.6954 10.7317 29.8281 11.983 29.7283 11.8185C29.629 11.654 27.475 8.42738 27.2096 8.52609C26.9447 8.62577 26.8124 8.55996 26.9112 8.92191C27.011 9.28386 30.0257 12.5104 30.0257 12.7737C30.0257 13.0369 30.2582 14.1915 30.0272 14.027L30.0267 14.025ZM20.069 16.429C19.9034 15.9354 17.1546 15.6983 16.9545 15.8856C16.6557 16.1653 16.3907 18.6341 16.6721 18.816C16.9535 18.998 19.125 19.1615 19.4718 19.0299C19.8205 18.8983 20.2347 16.9225 20.069 16.429ZM18.6934 18.141C18.5612 18.2295 17.4568 18.2736 17.3469 18.1202C17.2354 17.9663 17.3687 17.0009 17.3904 16.8253C17.4132 16.6462 18.6062 16.8916 18.7602 17.089C18.9152 17.2864 18.8261 18.0544 18.6939 18.1424L18.6934 18.141ZM18.4125 7.91881C18.7273 7.93526 19.2407 8.03398 19.2901 7.72138C19.34 7.40879 19.0417 5.99293 18.3456 4.89063C17.6496 3.78736 16.9894 3.03394 16.7714 3.17766C16.5229 3.34218 16.4895 3.573 16.5229 3.93543C16.5559 4.29738 16.5559 7.31008 16.7215 7.58977C16.8872 7.86946 18.0976 7.90236 18.4125 7.91881ZM17.4122 5.25742C17.4384 5.12677 18.1194 7.10104 18.008 7.14556C17.8981 7.18911 17.5672 7.21136 17.4994 7.10201C17.4345 6.99168 17.3687 5.47614 17.4122 5.25742ZM16.8213 20.529C16.6886 20.7758 16.6392 25.0064 16.6566 25.2372C16.6721 25.4676 17.3018 25.5334 17.6166 25.4511C17.9315 25.3688 17.948 25.155 18.2793 24.3154C18.6111 23.4754 19.6384 21.0719 19.4064 20.7588C19.1749 20.4462 16.9317 20.3238 16.8213 20.529ZM17.3904 24.5951C17.28 24.5733 17.5009 21.3903 17.5009 21.3903C17.8109 21.2587 18.5835 21.5001 18.5835 21.5877C18.5835 21.6758 17.5009 24.6169 17.3904 24.5951Z" fill="#CDC3AB"/>
</svg>
