<svg width="15" height="24" viewBox="0 0 15 24" fill="none" xmlns="http://www.w3.org/2000/svg">
<rect x="1" y="1" width="13" height="22" stroke="black" stroke-width="2"/>
<path d="M1.20117 11.9492C1.21094 11.6172 1.32812 11.334 1.5918 11.0801L9.20898 3.62891C9.41406 3.41406 9.6875 3.30664 10 3.30664C10.6348 3.30664 11.1328 3.79492 11.1328 4.42969C11.1328 4.74219 11.0059 5.02539 10.791 5.25L3.92578 11.9492L10.791 18.6484C11.0059 18.8633 11.1328 19.1465 11.1328 19.459C11.1328 20.1035 10.6348 20.5918 10 20.5918C9.6875 20.5918 9.41406 20.4844 9.20898 20.2695L1.5918 12.8184C1.32812 12.5645 1.20117 12.2812 1.20117 11.9492Z" fill="#CDC3AB"/>
</svg>
