<svg width="33" height="25" viewBox="0 0 33 25" fill="none" xmlns="http://www.w3.org/2000/svg">
<path d="M31.6474 4.83751C30.432 3.1243 28.6546 1.88131 26.618 1.32015C23.7915 0.426679 20.8394 -0.0147168 17.8726 0.0125812C14.9618 -0.0797106 12.0573 0.336345 9.29217 1.24169C6.90359 2.20804 4.69842 3.56991 2.77106 5.269C1.15398 6.60926 -0.139682 8.92366 0.0121251 10.885C0.209492 12.918 1.17061 14.8034 2.70505 16.1676C4.10432 17.3379 6.99526 17.9393 6.99526 17.9393C6.99526 17.9393 4.19013 23.9345 4.10432 24.3137C4.08457 24.382 4.07908 24.4536 4.08816 24.524C4.09724 24.5945 4.12072 24.6624 4.15716 24.7235C4.1936 24.7847 4.24223 24.8379 4.3001 24.8798C4.35797 24.9218 4.42385 24.9516 4.49374 24.9675C5.25938 25.2094 6.55304 24.0653 8.45393 22.7054C10.3548 21.3455 14.3942 19.0312 14.3942 19.0312C15.6032 19.1011 16.8154 19.1011 18.0244 19.0312C19.2652 18.8939 19.4831 18.7043 23.0604 18.1289C26.6378 17.5536 27.6807 17.1221 29.7135 15.7622C30.6177 15.1084 31.3717 14.2722 31.9257 13.3087C32.4798 12.3451 32.8214 11.2762 32.9279 10.1724C33.1897 8.29805 32.7329 6.39457 31.6474 4.83751ZM31.5946 9.76704C31.456 10.7477 30.796 13.5001 28.7631 14.86C26.7302 16.2199 22.242 17.1744 19.3577 17.4751C16.4733 17.7759 14.1302 17.6647 13.6946 17.8282C13.259 17.9916 6.23622 22.457 6.23622 22.457C6.23622 22.457 8.63214 17.2856 8.68494 17.0371C8.68951 16.9611 8.67639 16.8851 8.64659 16.8149C8.61679 16.7447 8.5711 16.6823 8.51305 16.6323C8.45501 16.5824 8.38616 16.5464 8.31182 16.527C8.23748 16.5076 8.15964 16.5055 8.08431 16.5206C7.7543 16.6318 6.32203 16.8998 4.48054 15.7034C3.63343 15.2059 2.92069 14.5124 2.40341 13.6824C1.88612 12.8523 1.5797 11.9104 1.5104 10.9373C1.37179 8.97596 2.83046 6.85116 4.36833 5.62205C6.29264 3.97303 8.56631 2.77323 11.0215 2.11123C14.1053 1.42431 17.2764 1.20389 20.4269 1.45744C23.7271 1.67319 25.3243 1.89548 28.5717 3.82414C29.6173 4.40223 30.4641 5.27732 31.0029 6.33657C31.5417 7.39582 31.7478 8.59067 31.5946 9.76704ZM7.42428 5.19055C7.17347 5.13171 5.31878 6.29544 4.24293 7.53763C3.16708 8.77982 3.20668 9.89779 3.25288 9.9501C3.42858 10.0357 3.62059 10.0834 3.81626 10.0902C4.01194 10.097 4.20684 10.0626 4.38813 9.98932C4.75775 9.85203 4.42774 9.15248 5.23298 7.89068C5.81047 7.0426 6.60866 6.36492 7.54309 5.92932C7.8533 5.76588 7.66849 5.30169 7.42428 5.2167V5.19055ZM29.4495 6.49812C29.2852 6.49221 29.1216 6.52394 28.9717 6.59085C28.8217 6.65775 28.6894 6.75801 28.5849 6.88385C28.5849 7.07345 29.5089 8.19142 29.839 9.00865C30.169 9.82588 29.7003 11.4015 29.5749 11.7088C29.4495 12.0161 29.839 12.1141 30.07 12.0553C30.301 11.9964 30.5848 11.323 30.7696 9.6232C30.9544 7.92337 29.7796 6.60926 29.4495 6.52427V6.49812ZM11.5693 8.57061C10.1436 9.2244 10.6782 10.532 11.5693 10.7542C12.4603 10.9765 13.3184 10.6104 13.259 9.64935C13.2513 9.45416 13.1962 9.26369 13.0984 9.09404C13.0007 8.92439 12.8631 8.78057 12.6973 8.67474C12.5316 8.56892 12.3425 8.5042 12.1462 8.48608C11.9498 8.46795 11.7519 8.49695 11.5693 8.57061ZM17.3644 8.05412C16.2885 8.28295 16.1433 9.2244 16.3941 9.59051C16.6449 9.95663 17.0541 11.1008 18.1498 10.7935C19.2454 10.4862 19.6547 9.87818 19.4237 9.10018C19.2847 8.6951 18.9921 8.35944 18.6078 8.16422C18.2235 7.969 17.7775 7.92951 17.3644 8.05412ZM23.7139 8.59023C22.0242 9.24401 22.9086 10.63 23.8789 10.5516C24.8491 10.4731 25.3639 9.83241 25.3243 9.34208C25.2776 9.18142 25.1973 9.03232 25.0885 8.90449C24.9797 8.77666 24.8449 8.67297 24.693 8.60018C24.541 8.52739 24.3753 8.48714 24.2066 8.48205C24.0379 8.47695 23.87 8.50713 23.7139 8.57061V8.59023Z" fill="#CDC3AB"/>
</svg>
