<svg width="36" height="36" viewBox="0 0 36 36" fill="none" xmlns="http://www.w3.org/2000/svg">
<path d="M30.4182 2.31013C23.2186 -1.30845 16.7642 3.39239 16.7642 3.39239C15.988 0.207492 11.6441 -0.101885 10.185 0.0218657C8.72712 0.145616 3.35778 0.979246 0.999904 7.19603C-1.35853 13.4128 0.906534 16.8458 3.14123 19.5374C5.37592 22.2289 10.8066 22.5676 10.8994 22.5991C10.9927 22.63 10.2165 26.7126 10.279 26.8673C10.3408 27.022 11.9861 27.3314 11.9861 27.3314L12.1717 34.7548C12.1717 34.7548 13.6004 34.9713 13.6926 34.5691C13.786 34.1669 13.507 27.1463 13.507 27.1463C13.507 27.1463 14.5616 27.0845 14.7163 26.4353C14.8721 25.7856 13.0722 22.3836 13.0722 22.3836L14.1898 22.2599C14.1898 22.2599 15.3069 23.3736 16.3311 24.2399C17.3548 25.1061 19.1547 26.0331 19.1547 26.0331C19.1547 26.0331 17.7278 28.8485 17.7278 29.1573C17.7278 29.4667 19.3106 29.9307 19.3106 29.9307C19.3106 29.9307 19.5907 35.5591 19.5907 35.8066C19.5907 36.0541 20.9248 36.0851 21.111 35.7757C21.2978 35.4663 20.7398 30.2407 20.7398 30.2407C20.7398 30.2407 22.353 30.55 22.6944 30.3025C23.0358 30.055 22.7877 27.0231 22.7877 27.0231C29.5543 27.58 34.7357 21.55 35.3871 19.4153C36.0378 17.2806 37.6201 5.92984 30.4205 2.31125L30.4182 2.31013ZM8.59437 20.5577C5.77865 19.8394 2.98655 17.7508 2.05454 14.7133C1.12365 11.673 2.14847 7.28941 4.17336 4.87627C6.19825 2.46425 7.33838 2.2325 8.92061 1.7915C9.97692 1.49731 12.6678 1.51306 13.8085 2.06994C14.9492 2.62682 15.6939 3.71808 15.7406 4.06514C15.7872 4.41389 15.3215 4.94658 15.3215 4.94658C15.3215 4.94658 13.3433 3.94814 13.1571 3.94814C12.9715 3.94814 12.6678 4.29689 12.7848 4.45889C12.9018 4.62089 14.6241 5.47984 14.6004 5.57265C14.5779 5.6649 14.1347 6.24484 14.0183 6.24484C13.9018 6.24484 12.3421 5.2239 12.1565 5.2239C11.9709 5.2239 11.7144 5.50234 11.8078 5.73409C11.9006 5.96584 13.5525 6.91703 13.5525 6.91703C13.5525 6.91703 13.3894 7.52004 13.1335 7.49641C12.8776 7.47391 11.6671 6.49965 11.481 6.49965C11.2948 6.49965 11.0619 6.94066 11.1086 7.03291C11.1553 7.12572 12.6914 8.19279 12.6678 8.30867C12.6442 8.42454 12.5283 8.86554 12.4119 8.86554C12.2954 8.86554 10.9455 7.9841 10.7824 7.9841C10.6193 7.9841 10.3403 8.49429 10.4798 8.63379C10.6193 8.77273 12.0153 9.49217 12.0153 9.49217C12.0153 9.49217 12.1784 10.0952 11.8522 10.0952C11.5271 10.0952 10.2002 9.33017 10.0838 9.3763C9.96736 9.42242 9.73506 9.93318 9.85093 10.026C9.96736 10.1188 11.643 10.8377 11.643 10.9305C11.643 11.0233 11.5035 12.0206 11.4101 11.9745C11.3167 11.9278 10.0135 11.1622 9.92068 11.2084C9.82731 11.2545 9.66475 11.5329 9.85093 11.8581C10.0365 12.1826 11.2942 12.6934 11.3173 12.8087C11.3404 12.924 11.1542 13.5748 11.1542 13.5748L9.80425 12.9954C9.80425 12.9954 9.54889 13.6209 9.73506 13.7138C9.92124 13.8066 11.1317 14.3168 11.2014 14.3865C11.2712 14.4563 11.2712 15.268 11.1547 15.2449C11.0389 15.2224 9.712 14.8039 9.712 14.8039C9.712 14.8039 9.50276 15.3833 9.7345 15.4997C9.96792 15.6156 11.1317 16.1494 11.2014 16.1955C11.2712 16.2416 11.5968 17.6569 11.504 17.6569C11.4112 17.6569 9.9218 16.8216 9.85206 16.8216C9.78231 16.8216 9.54945 17.2857 9.73563 17.4477C9.92124 17.6108 11.9461 18.6306 12.0164 18.7695C12.0868 18.909 12.1104 19.5357 12.1104 19.5357C12.1104 19.5357 10.2486 18.724 10.1322 18.724C10.0157 18.724 9.64282 19.0952 10.0157 19.3495C10.3881 19.6049 12.3432 20.6252 12.3432 20.6252C12.3432 20.6252 11.414 21.2761 8.59719 20.5577H8.59437ZM12.8073 25.6383C12.6683 25.7541 11.8769 25.9628 11.8769 25.7311C11.8769 25.4993 12.0626 24.8266 12.1796 24.664C12.3067 24.4857 12.9468 25.5224 12.8073 25.6383ZM21.2106 28.7467C21.0238 28.7467 19.6975 28.5835 19.6272 28.3293C19.5575 28.0739 20.1627 26.891 20.2555 26.7284C20.2904 26.6682 20.814 26.7745 20.9771 26.9601C21.1403 27.1458 21.3968 28.7467 21.2106 28.7467ZM34.5152 15.7022C34.36 15.6094 31.5679 12.9493 31.3497 12.9493C31.1325 12.9493 30.9773 13.5062 30.9773 13.5062C30.9773 13.5062 34.4534 16.5679 34.4534 16.6843C34.4534 16.8002 34.1271 18.076 34.0574 18.0298C33.9876 17.9837 30.799 14.7358 30.7293 14.7358C30.6595 14.7358 30.2174 15.3152 30.3569 15.4547C30.4975 15.5942 33.8487 18.7257 33.8257 18.9574C33.8032 19.1892 33.3138 20.187 33.1507 20.0712C32.9876 19.9553 30.0318 16.893 29.8456 16.8694C29.6594 16.8458 29.3113 17.4499 29.3805 17.5197C29.4502 17.5894 32.825 20.6511 32.6388 20.9526C32.4532 21.2536 32.1495 21.8566 31.9639 21.7401C31.7783 21.6248 29.1943 18.9332 29.0312 18.8882C28.868 18.8415 28.2864 19.143 28.3337 19.3287C28.3809 19.5143 31.4751 22.3212 31.3587 22.4371C31.2422 22.5524 30.335 23.1796 30.1943 23.0626C30.0554 22.9467 27.5884 20.3485 27.472 20.3485C27.3556 20.3485 26.8437 20.8356 26.9826 20.9746C27.1233 21.1135 29.7297 23.7589 29.66 23.8039C29.5903 23.8506 28.6127 24.3608 28.5429 24.3147C28.4732 24.2686 26.1457 21.5078 26.0287 21.4853C25.9128 21.4617 25.3537 21.6006 25.4471 21.8329C25.5405 22.0647 27.8443 24.8479 27.7049 24.8479C27.5654 24.8479 26.6108 25.0572 26.518 25.0111C26.4252 24.965 24.1208 21.9257 23.9813 21.8796C23.8418 21.8329 23.3761 21.9488 23.3761 22.1344C23.3761 22.3201 25.8431 25.2428 25.5866 25.289C25.3301 25.3351 24.5168 25.4054 24.307 25.244C24.0977 25.0808 22.4216 22.4371 22.2123 22.3904C22.0025 22.3442 21.5137 22.5293 21.5137 22.6688C21.5137 22.8083 23.2591 25.3126 23.0965 25.3126C22.9334 25.3126 22.2821 25.4982 22.1656 25.2901C22.0492 25.082 20.9091 23.4805 20.7229 23.4805C20.5373 23.4805 20.2336 23.8293 20.3506 24.0835C20.467 24.3389 21.0255 25.2434 20.9091 25.2434C20.7927 25.2434 18.5816 24.4075 16.7896 22.8078C14.997 21.2069 12.553 18.0985 12.7162 13.8763C12.8793 9.65474 15.0437 7.27253 15.7422 6.42315C17.2795 4.55002 19.6829 2.12338 24.555 2.49463C29.4271 2.86588 30.4823 4.19564 31.2889 4.84589C32.0961 5.49502 32.7165 7.22753 32.6231 7.1966C32.5297 7.16566 31.7231 6.60878 31.7231 6.60878C31.7231 6.60878 31.3198 7.16566 31.4436 7.28941C31.5673 7.41316 33.3054 8.55785 33.4291 8.77442C33.554 8.99098 33.896 9.60974 33.802 9.64067C33.7087 9.67161 32.3745 8.71254 32.2496 8.71254C32.1259 8.71254 31.7844 9.20755 32.0021 9.39317C32.2192 9.5788 34.2053 11.0019 34.2987 11.1561C34.3921 11.3102 34.4224 12.3002 34.4224 12.3002L32.0331 10.7533C32.0331 10.7533 31.5055 11.1246 31.7226 11.3102C31.9397 11.4958 34.5462 13.1974 34.6395 13.3521C34.7318 13.5062 34.6705 15.795 34.5152 15.7022ZM7.64042 4.55227C7.36144 4.50614 6.64035 4.64508 5.10369 6.2454C3.56814 7.84629 3.3679 9.26436 3.40503 9.46967C3.4984 9.97986 4.61546 10.1655 4.77745 10.0266C4.94057 9.88761 5.10368 9.09842 5.89508 7.89241C6.68648 6.6864 8.10671 5.89721 8.12977 5.68852C8.1534 5.4804 7.92053 4.59896 7.64155 4.55227H7.64042ZM22.4435 4.83071C22.1409 4.78402 20.4186 5.17833 18.7425 6.47715C17.0674 7.77654 16.2417 10.1295 16.2991 10.2814C16.3688 10.467 17.1372 11.0239 17.4398 10.7685C17.7424 10.5131 18.0219 9.9568 19.6503 8.00829C21.2786 6.05978 22.5599 6.50078 22.7697 6.2679C22.979 6.03559 22.7461 4.87571 22.4435 4.82958V4.83071Z" fill="#CDC3AB"/>
</svg>
