<svg width="62" height="64" viewBox="0 0 62 64" fill="none" xmlns="http://www.w3.org/2000/svg">
<path d="M21.3954 35.6924C16.8715 35.6924 13.1929 39.2348 13.1929 43.5912C13.1929 47.9453 16.8715 51.4877 21.3954 51.4877C25.9194 51.4877 29.598 47.9453 29.598 43.5912C29.5968 39.2348 25.9194 35.6924 21.3954 35.6924ZM21.3954 47.6373C19.0759 47.6373 17.1913 45.8214 17.1913 43.5912C17.1913 41.3575 19.077 39.5404 21.3954 39.5404C23.7138 39.5404 25.602 41.3575 25.602 43.5912C25.602 45.8226 23.715 47.6373 21.3954 47.6373Z" fill="#CDC3AB"/>
<path d="M35.6871 27.7439L30.1651 30.8176C29.6301 30.4768 29.0741 30.1678 28.498 29.8915V23.7441H14.296V29.8938C13.7752 30.144 13.2697 30.4202 12.7806 30.7248L7.28791 27.5888L0.0482025 39.3549L5.53853 42.4863C5.50444 42.869 5.48798 43.2358 5.48798 43.5924C5.48798 43.8935 5.49973 44.2026 5.52442 44.523L0 47.5944L7.10216 59.4398L12.6313 56.3638C13.1639 56.7046 13.7223 57.0114 14.296 57.2876V63.435H28.498V57.2876C29.0164 57.0374 29.522 56.7589 30.0134 56.4566L35.5037 59.5903L42.7434 47.8243L37.2578 44.6928C37.2896 44.3147 37.306 43.9524 37.306 43.5913C37.306 43.2856 37.2943 42.9788 37.2719 42.6607L42.794 39.5892L35.6871 27.7439ZM32.962 40.6104L33.1642 41.9067C33.2629 42.5475 33.3088 43.0852 33.3088 43.5913C33.3088 44.1347 33.2559 44.7121 33.1407 45.4083L32.929 46.6978L37.266 49.1726L34.1 54.3158L29.763 51.8376L28.6861 52.6448C27.7949 53.3127 26.8121 53.8539 25.7657 54.2524L24.5007 54.7324V59.5881H18.2921V54.7347L17.0294 54.2524C15.9337 53.8369 14.9121 53.2686 13.9986 52.5678L12.9334 51.7493L8.5682 54.1788L5.46094 49.0028L9.83086 46.571L9.631 45.277C9.53459 44.6487 9.48639 44.0985 9.48639 43.5924C9.48639 43.0377 9.5393 42.4603 9.65216 41.7731L9.86378 40.4813L5.52795 38.0065L8.6893 32.8633L13.031 35.3438L14.1056 34.5366C14.9967 33.8687 15.9796 33.3275 17.0282 32.9267L18.2909 32.4467V27.5933H24.4996V32.449L25.7646 32.929C26.8626 33.3445 27.8796 33.9128 28.7954 34.6136L29.8606 35.4298L34.2281 33.0015L37.3331 38.1775L32.962 40.6104Z" fill="#CDC3AB"/>
<path d="M45.0899 9.07593C41.3889 9.07593 38.3804 11.973 38.3804 15.5369C38.3804 19.1031 41.3889 22.0024 45.0899 22.0024C48.7885 22.0024 51.8017 19.1031 51.8017 15.5369C51.8017 11.9719 48.7897 9.07593 45.0899 9.07593ZM45.0899 18.1521C43.5956 18.1521 42.3753 16.9804 42.3753 15.5358C42.3753 14.0969 43.5944 12.924 45.0899 12.924C46.5865 12.924 47.8045 14.0957 47.8045 15.5358C47.8045 16.9804 46.5876 18.1521 45.0899 18.1521Z" fill="#CDC3AB"/>
<path d="M56.1245 2.86991L51.7617 5.29378C51.5018 5.13641 51.2361 4.9881 50.9646 4.85112V0H39.2127V4.84885C38.9811 4.96773 38.7553 5.09226 38.5355 5.22019L34.202 2.74991L28.2132 12.4838L32.5396 14.9519C32.5279 15.1511 32.5232 15.3458 32.5232 15.5383C32.5232 15.6866 32.5255 15.8372 32.5326 15.9866L28.1768 18.4082L34.0527 28.2101L38.4156 25.7817C38.6754 25.939 38.9387 26.0874 39.2127 26.2243V31.0755H50.9646V26.2266C51.1938 26.1089 51.4195 25.9855 51.6394 25.8553L55.9729 28.3278L61.964 18.5916L57.6376 16.1236C57.6494 15.9266 57.6564 15.7319 57.6564 15.5372C57.6564 15.3889 57.6517 15.2383 57.647 15.0866L62.0005 12.6672L56.1245 2.86991ZM53.5498 14.3258C53.6145 14.7243 53.658 15.1239 53.658 15.5372C53.658 15.9379 53.6192 16.3625 53.5381 16.8334L53.3159 18.1308L56.4866 19.9422L54.5715 23.0533L51.3984 21.2442L50.3238 22.0559C49.6972 22.5291 48.9918 22.9186 48.23 23.2084L46.9673 23.6907V27.2263H43.2087V23.6907L41.9484 23.2084C41.1607 22.9072 40.4236 22.4985 39.7629 21.9948L38.7001 21.1808L35.5164 22.9503L33.6377 19.8188L36.8343 18.0437L36.625 16.7417C36.5627 16.3478 36.5192 15.9504 36.5192 15.5383C36.5192 15.0934 36.5698 14.6609 36.6415 14.2318L36.8578 12.9401L33.6918 11.1355L35.6069 8.02444L38.7753 9.83356L39.8499 9.02183C40.4859 8.54408 41.1913 8.15463 41.9461 7.86708L43.2087 7.38706V3.8492H46.9673V7.38479L48.2276 7.86481C49.02 8.17048 49.7548 8.57918 50.4108 9.0807L51.4736 9.8947L54.6585 8.1252L56.5395 11.2589L53.35 13.0295L53.5498 14.3258Z" fill="#CDC3AB"/>
</svg>
