<svg width="36" height="24" viewBox="0 0 36 24" fill="none" xmlns="http://www.w3.org/2000/svg">
<path d="M35.9607 17.1305C35.9989 15.4265 35.5517 2.67586 35.4736 1.5217C35.3954 0.367548 33.1786 0.019275 32.0108 0.00167463C30.8431 -0.0159257 28.0621 0.11101 27.5558 0.11101C27.0507 0.11101 21.5652 0.073676 17.7329 0.11101C13.9006 0.148344 5.30334 0.239013 3.7469 0.239013C2.19047 0.239013 0.582282 0.425683 0.382032 0.678488C-0.416154 1.68704 0.284157 8.46477 0.284157 13.0814C0.284157 17.698 0.517594 20.2629 0.731344 20.9039C0.945094 21.545 1.80178 23.304 2.11284 23.5787C2.4239 23.8533 3.00722 23.8171 5.28365 23.8533C7.55952 23.8907 7.75415 24 13.1418 24C18.5294 24 24.0936 23.8347 28.8411 23.7067C33.5886 23.5787 34.0341 23.5051 35.1822 22.7541C36.3297 22.0032 35.9213 18.834 35.9601 17.13L35.9607 17.1305ZM35.1226 10.9192C34.9864 10.7725 33.9166 9.25198 33.7028 9.27118C33.4891 9.28879 33.5284 9.67386 33.5667 9.8568C33.6061 10.0397 35.0449 11.5048 35.0449 11.6152C35.0449 11.7256 35.1422 12.6963 35.0843 12.6595C35.0252 12.6222 33.9554 10.7544 33.7028 10.8643C33.4497 10.9742 33.4497 11.3955 33.4694 11.5416C33.4891 11.6888 35.0646 13.2825 35.0646 13.4659C35.0646 13.6494 35.1417 14.5833 35.0646 14.4003C34.9859 14.2174 33.7607 12.3667 33.547 12.4766C33.3332 12.5864 33.2939 12.9353 33.3912 13.1363C33.4885 13.3379 35.0252 14.9497 35.0449 15.1513C35.0641 15.3529 35.1799 16.5988 35.0641 16.5071C34.9471 16.4153 33.9166 14.5102 33.4682 14.4185C33.0211 14.3267 32.962 14.6569 33.1572 14.8217C33.3518 14.987 34.1303 16.2511 34.3441 16.6169C34.5578 16.9833 35.122 17.4596 35.1417 17.5695C35.1614 17.6793 35.1811 19.2548 35.0641 19.1818C34.9476 19.1087 34.1106 17.2217 33.5858 16.6356C33.0604 16.0489 32.7882 15.7556 32.6324 15.9209C32.4766 16.0862 32.5547 16.3604 32.71 16.5807C32.8658 16.8004 34.3244 18.9988 34.4414 19.1818C34.5584 19.3647 34.6551 19.53 34.6157 19.6581C34.5764 19.7861 34.3829 19.9514 34.3829 20.0794C34.3829 20.2074 34.3238 20.2447 34.3041 20.1167C34.285 19.9887 32.476 17.4047 32.1649 16.9833C31.8539 16.562 31.8151 16.4521 31.5237 16.5801C31.2323 16.7081 31.5428 17.0921 31.6396 17.2201C31.7369 17.3481 34.0712 20.5183 34.0904 20.7562C34.1101 20.9946 33.7979 21.2693 33.6432 21.1957C33.4885 21.1221 31.2694 17.6783 30.9392 17.2201C30.6085 16.7615 30.4724 16.7615 30.298 16.9641C30.1225 17.1652 30.5309 17.5316 30.8228 18.0079C31.1153 18.4842 32.6324 20.7557 32.8467 20.9754C33.0604 21.1957 33.0998 21.4522 33.0998 21.4522C33.0998 21.4522 32.4586 21.6538 32.3219 21.544C32.1857 21.4341 29.6567 17.4585 29.443 17.4585C29.2292 17.4585 29.0346 17.7332 29.0931 17.8249C29.1516 17.9167 31.7971 21.5621 31.5439 21.5797C31.2908 21.5984 30.6496 21.7077 30.4937 21.5984C30.3379 21.489 28.6262 18.4655 28.3337 18.4474C28.0412 18.4292 27.8871 18.8868 27.9062 18.9604C27.9259 19.0335 29.8322 21.4885 29.6961 21.5802C29.56 21.672 29.1516 21.8 28.9182 21.6352C28.6847 21.4698 27.148 18.5759 26.9534 18.5023C26.7588 18.4287 26.2924 18.722 26.4094 18.8319C26.5259 18.9423 28.4131 21.745 28.1408 21.745C27.8691 21.745 27.4799 21.8 27.3634 21.6533C27.247 21.5066 25.6321 18.9972 25.4566 18.9418C25.2822 18.8868 24.9126 18.9967 25.0099 19.2164C25.1073 19.4367 27.1109 21.7445 26.8189 21.7445C26.5264 21.7445 25.7108 21.9098 25.5927 21.7269C25.4746 21.544 24.0953 19.2362 23.8433 19.1807C23.5913 19.1252 23.3956 19.4191 23.4344 19.5471C23.4732 19.6751 24.9514 21.7269 24.7765 21.7456C24.601 21.7637 23.881 21.8005 23.7449 21.7082C23.6088 21.6176 22.558 19.529 22.3639 19.5108C22.1699 19.4922 21.8779 19.7487 21.9173 19.8586C21.9567 19.9685 23.1621 21.7274 22.9287 21.7637C22.6953 21.801 22.2874 21.8554 22.1119 21.7264C21.9376 21.5984 20.8086 19.785 20.5949 19.7477C20.3811 19.7114 19.9722 19.8757 20.0504 20.041C20.128 20.2063 21.3149 21.7818 21.1203 21.8C20.9256 21.8181 20.2056 21.8917 20.1078 21.8C20.011 21.7082 18.7859 20.2063 18.6689 20.1519C18.5524 20.0965 18.1047 20.2426 18.2217 20.353C18.3381 20.4634 19.4479 21.7093 19.2139 21.745C18.9811 21.7824 13.8066 21.9653 10.4412 22.0021C7.07578 22.0394 5.13121 22.0394 3.84703 21.8554C2.56284 21.6714 2.03859 21.2506 1.74666 21.0127C1.45078 20.777 1.23703 18.3034 1.19822 15.6654C1.15997 13.0281 0.965344 6.92767 0.926531 5.38791C0.887719 3.84815 0.752157 1.98091 0.985031 1.5777C1.11778 1.34837 2.48353 1.30303 6.82152 1.11903C11.1595 0.935026 15.5363 0.95476 21.2356 0.900359C26.9359 0.844891 29.8727 0.753156 31.3707 0.844891C32.8686 0.936626 34.3857 1.11956 34.6579 1.61451C34.9302 2.10891 35.0472 6.06632 34.9302 5.97459C34.8132 5.88285 34.2299 5.22364 34.0937 5.36978C33.9571 5.51645 33.8209 5.73618 33.9374 5.86419C34.0538 5.99219 34.9684 6.68874 34.9876 6.87221C35.0067 7.05461 35.0455 7.42155 34.9876 7.31115C34.9285 7.20128 34.3069 6.46846 34.1309 6.6338C33.9548 6.79914 33.8198 7.07274 33.9947 7.21941C34.1691 7.36608 35.0258 8.2637 35.0646 8.4653C35.104 8.66691 35.0843 9.12505 35.0061 8.99651C34.9285 8.86851 34.0139 7.58582 33.7799 7.76982C33.547 7.95223 33.6449 8.39223 33.6831 8.4845C33.7214 8.57677 35.0837 9.69306 35.0837 9.78479C35.0837 9.87653 35.2604 11.068 35.1242 10.9208L35.1226 10.9192ZM7.46109 4.8551C7.90827 5.25884 11.4295 7.95169 13.9 9.71013C16.3705 11.4686 17.0511 11.6515 18.841 11.6152C20.6309 11.579 21.6614 10.8643 23.296 9.9672C24.9295 9.06905 29.4812 4.85563 30.0651 4.10415C30.649 3.35321 30.2789 3.26147 29.8711 3.09613C29.4627 2.93186 27.8674 2.93186 22.207 3.04173C16.5466 3.1516 9.99065 3.20707 8.72671 3.22467C7.46277 3.24227 6.57402 3.39321 6.48965 3.51801C6.21684 3.92122 7.01446 4.45243 7.46165 4.85563L7.46109 4.8551ZM18.5873 5.02044C22.8286 5.03857 27.6717 4.8375 27.8472 5.02044C28.0216 5.20337 24.7534 8.13516 22.7509 9.27118C20.7484 10.4072 19.8327 10.9742 18.0428 10.7363C16.253 10.4979 12.8881 7.78689 11.6039 6.88927C10.3197 5.99166 9.54233 5.35004 9.6014 5.22151C9.64471 5.12551 14.3478 5.00177 18.5884 5.0199L18.5873 5.02044ZM32.1267 4.50736C31.6013 4.41563 29.812 6.55913 28.6842 7.89622C27.5564 9.23332 26.3577 10.6483 26.3301 10.7357C26.2143 11.1027 26.6029 11.1758 27.7307 12.1102C28.8586 13.0446 30.2603 14.9497 30.8245 15.6089C31.3887 16.2692 31.7386 16.4153 32.1475 16.1406C32.5559 15.866 32.4586 15.5726 32.5171 14.3086C32.575 13.0446 32.6521 8.6109 32.7499 6.81514C32.8467 5.02044 32.6521 4.5991 32.1267 4.50736ZM31.7386 15.1876C31.5434 15.0777 29.8902 12.8793 29.5009 12.5496C29.1117 12.22 28.4508 11.7251 28.3928 11.4872C28.3574 11.3443 31.7959 7.47542 31.9129 7.60342C32.0299 7.73142 31.9326 15.2974 31.7386 15.1876ZM26.6609 14.1433C25.8239 13.1726 25.2603 12.2382 24.637 12.2563C24.0143 12.2744 22.8668 12.9523 21.8943 13.5753C20.9211 14.1982 20.0464 14.5646 19.1706 14.5646C18.2948 14.5646 16.2721 13.5753 15.9998 13.3737C15.7276 13.1721 14.2994 12.7427 13.9765 12.787C13.315 12.8793 9.89165 17.1295 9.58002 17.4964C9.26896 17.8623 10.0075 18.522 10.4744 18.577C10.9413 18.6319 12.2255 18.577 18.3719 18.3386C24.52 18.1002 27.4759 17.8991 28.021 17.7892C28.5655 17.6793 28.5852 17.2212 28.4682 16.8735C28.3512 16.5257 27.4967 15.1134 26.6603 14.1427L26.6609 14.1433ZM27.5356 17.0564C27.4191 17.1663 23.1784 17.4959 17.8679 17.6975C12.5573 17.8991 11.6821 17.8255 11.7406 17.7348C11.7991 17.6441 14.5221 14.7108 14.795 14.675C14.9676 14.6516 17.8099 15.9572 19.0739 15.994C20.3384 16.0313 21.7975 15.5177 23.0226 14.675C24.2489 13.8323 24.9093 13.3929 25.1039 13.411C25.2985 13.4291 26.8741 15.4996 27.2245 16.0857C27.5744 16.6724 27.652 16.9465 27.5356 17.0564ZM9.40621 8.92291C8.14059 7.76822 5.01871 5.25351 4.67896 5.25884C3.20128 5.27644 3.64847 7.41995 3.74522 10.2045C3.84309 12.9886 4.29084 16.562 4.52371 17.514C4.75715 18.4666 5.49684 18.4847 6.09871 18.3386C6.70059 18.1924 7.16915 17.4409 8.35602 16.0302C9.5429 14.6196 11.2737 12.348 11.4295 11.3582C11.5853 10.3683 10.6713 10.0765 9.40677 8.92238L9.40621 8.92291ZM6.97509 16.5615C6.44971 17.1663 6.50821 17.1844 6.37209 17.1663C6.23596 17.1481 6.37209 11.6152 6.31359 10.5901C6.25509 9.56506 6.13921 8.40983 6.23596 8.20823C6.30065 8.07383 8.06409 9.50959 9.01752 10.26C9.97096 11.0104 10.4766 11.4318 10.5155 11.6147C10.5548 11.7982 7.50046 15.9561 6.97509 16.5609V16.5615ZM19.6578 12.2574C18.7038 12.4035 17.6879 12.1 17.4398 12.0547C17.0315 11.9822 16.9533 12.4584 17.2064 12.6787C17.4595 12.8974 18.004 13.0446 19.4434 13.0265C20.8823 13.0083 21.8549 12.4771 22.0107 12.2387C22.1665 11.9998 21.9331 11.652 21.6608 11.6147C21.388 11.5784 20.6101 12.1096 19.6566 12.2563L19.6578 12.2574ZM3.53259 20.3173C3.31884 20.1343 3.53259 18.9066 3.41672 18.705C3.30028 18.5034 2.74622 18.5151 2.65734 18.705C2.52234 18.9983 2.56059 19.9509 2.7164 20.4634C2.87222 20.9759 3.28003 21.2879 3.82453 21.2143C4.36903 21.1407 4.3499 20.6463 4.2914 20.5183C4.2329 20.3903 3.74578 20.5002 3.53203 20.3173H3.53259ZM2.71697 3.2988C2.8334 2.85933 3.59222 2.87746 3.80653 2.76759C4.02028 2.65773 4.05965 2.69453 4.02028 2.45612C3.9809 2.21772 3.72778 1.96171 2.9504 2.08971C2.17303 2.21772 1.78322 2.87693 1.80291 3.44441C1.82259 4.01295 1.77591 5.23377 1.95872 5.33244C2.23097 5.47858 2.54203 5.47858 2.65903 5.35004C2.77603 5.22151 2.60053 3.73828 2.71697 3.2988ZM33.7444 2.73079C33.8794 2.56652 33.9773 2.43745 33.4913 1.76011C33.0053 1.08276 31.9276 0.894492 31.7402 0.991027C31.1372 1.3025 31.468 1.94358 32.0327 1.96171C32.5964 1.97985 32.8686 2.63906 33.0632 2.85933C33.2579 3.0796 33.6077 2.89666 33.7439 2.73133L33.7444 2.73079Z" fill="#CDC3AB"/>
</svg>
